<svg width="18" height="18" viewBox="0 0 18 18" fill="none" xmlns="http://www.w3.org/2000/svg">
<path d="M11.9953 5.99984C10.8086 5.99984 9.64853 6.35173 8.66183 7.01102C7.67514 7.67031 6.90611 8.60738 6.45198 9.70374C5.99785 10.8001 5.87903 12.0065 6.11054 13.1704C6.34206 14.3343 6.9135 15.4034 7.75262 16.2425C8.59173 17.0816 9.66083 17.653 10.8247 17.8846C11.9886 18.1161 13.195 17.9972 14.2914 17.5431C15.3877 17.089 16.3248 16.32 16.9841 15.3333C17.6434 14.3466 17.9953 13.1865 17.9953 11.9998C17.9935 10.4091 17.3608 8.884 16.2359 7.75917C15.1111 6.63434 13.586 6.00163 11.9953 5.99984ZM11.9953 16.4998C11.1052 16.4998 10.2352 16.2359 9.49519 15.7415C8.75517 15.247 8.17839 14.5442 7.8378 13.7219C7.4972 12.8996 7.40809 11.9948 7.58172 11.1219C7.75536 10.249 8.18394 9.44719 8.81328 8.81786C9.44261 8.18852 10.2444 7.75994 11.1174 7.58631C11.9903 7.41267 12.8951 7.50179 13.7173 7.84238C14.5396 8.18298 15.2424 8.75975 15.7369 9.49977C16.2313 10.2398 16.4953 11.1098 16.4953 11.9998C16.4941 13.1929 16.0196 14.3368 15.1759 15.1805C14.3323 16.0242 13.1884 16.4986 11.9953 16.4998ZM14.9953 11.9998C14.9953 12.1988 14.9162 12.3895 14.7756 12.5302C14.6349 12.6708 14.4442 12.7498 14.2453 12.7498H12.7453V14.2498C12.7453 14.4488 12.6662 14.6395 12.5256 14.7802C12.3849 14.9208 12.1942 14.9998 11.9953 14.9998C11.7963 14.9998 11.6056 14.9208 11.4649 14.7802C11.3243 14.6395 11.2453 14.4488 11.2453 14.2498V12.7498H9.74526C9.54634 12.7498 9.35558 12.6708 9.21493 12.5302C9.07427 12.3895 8.99526 12.1988 8.99526 11.9998C8.99526 11.8009 9.07427 11.6102 9.21493 11.4695C9.35558 11.3289 9.54634 11.2498 9.74526 11.2498H11.2453V9.74984C11.2453 9.55093 11.3243 9.36016 11.4649 9.21951C11.6056 9.07886 11.7963 8.99984 11.9953 8.99984C12.1942 8.99984 12.3849 9.07886 12.5256 9.21951C12.6662 9.36016 12.7453 9.55093 12.7453 9.74984V11.2498H14.2453C14.4442 11.2498 14.6349 11.3289 14.7756 11.4695C14.9162 11.6102 14.9953 11.8009 14.9953 11.9998ZM8.99526 3.73559C8.99252 3.59408 8.94979 3.45624 8.87202 3.33799C8.79425 3.21974 8.6846 3.12591 8.55576 3.06734L2.04951 0.109339C2.02753 0.0988693 2.00499 0.0896056 1.98201 0.0815893C1.71664 -0.00995033 1.43085 -0.0247997 1.15743 0.0387462C0.884007 0.102292 0.63405 0.241657 0.436256 0.440839C0.230567 0.648667 0.089724 0.911803 0.0308688 1.19822C-0.0279864 1.48464 -0.00231608 1.78199 0.104755 2.05409L3.06276 8.56034C3.12132 8.68918 3.21515 8.79883 3.33341 8.8766C3.45166 8.95437 3.5895 8.9971 3.73101 8.99984H3.74526C3.88463 8.9999 4.02126 8.96113 4.13983 8.88787C4.2584 8.81461 4.35421 8.70976 4.41651 8.58509L5.80401 5.81009L8.57901 4.42259C8.70639 4.35933 8.81316 4.26115 8.88686 4.13951C8.96056 4.01787 8.99815 3.87778 8.99526 3.73559V3.73559ZM4.91001 4.57859C4.76455 4.65121 4.64663 4.76913 4.57401 4.91459L3.77601 6.51059L1.49526 1.50359L6.50451 3.78209L4.91001 4.57859Z" fill="white"/>
</svg>
